<svg xmlns="http://www.w3.org/2000/svg" viewBox="0 0 128 128" role="img" aria-labelledby="title desc">
  <title id="title">DELNE logo</title>
  <desc id="desc">Rounded square badge with a stylized letter D cut out of the center.</desc>
  <rect width="128" height="128" rx="28" fill="#0A1A2F" />
  <path
    fill="#F6F8FB"
    d="M36 26h32c20.435 0 37 16.565 37 37s-16.565 37-37 37H36a6 6 0 0 1-6-6V32a6 6 0 0 1 6-6Zm22 18h10c10.493 0 19 8.507 19 19s-8.507 19-19 19H58a2 2 0 0 1-2-2V46a2 2 0 0 1 2-2Z"
  />
  <path
    fill="#0A1A2F"
    d="M58 52a2 2 0 0 1 2-2h8c7.732 0 14 6.268 14 14s-6.268 14-14 14h-8a2 2 0 0 1-2-2Z"
  />
</svg>
