<svg xmlns="http://www.w3.org/2000/svg" width="256" height="256" viewBox="0 0 256 256" role="img" aria-label="Delne logo">
  <defs>
    <linearGradient id="shadow" x1="0%" y1="0%" x2="0%" y2="100%">
      <stop offset="0%" stop-color="#113a80" stop-opacity="0.2" />
      <stop offset="100%" stop-color="#071f4f" stop-opacity="0.35" />
    </linearGradient>
  </defs>
  <rect width="256" height="256" rx="40" fill="#0c2f68" />
  <rect width="256" height="256" rx="40" fill="url(#shadow)" />
  <path
    fill="#ffffff"
    d="M66 42h88c47.6 0 86 38.4 86 86s-38.4 86-86 86H98c-17.1 0-32-13.9-32-32V42z"
  />
  <path
    fill="#0c2f68"
    d="M98 74h48c30.4 0 56 24.8 56 55.2 0 30.4-24.8 55.2-55.2 55.2H122c-13.3 0-24-10.7-24-24V74z"
  />
  <path
    fill="#ffffff"
    d="M156 110c-11.4-13.1-34.4-17.3-52.8-14.3-7 1.1-12.7-7.2-7.6-12.7 7.3-7.8 17.3-11.6 30.4-12.5 30.6-2 52.1 19.8 52.1 46.5 0 11.7-4.3 26.2-10.6 35.9-3.5 5.5-12 4.7-13.9-1.4-3-9.7-7.5-21-18.9-32.5-7.5-7.7-18.8-5-22.9 4.1-1.3 2.9-1.9 6.7-1.8 11.2.1 6.8-8.7 9.8-13.1 4.8-12.5-14-10.5-38.6 6.8-50 20.6-13.9 48.9-8.7 65.4 20.9 3.6 6.4-6.2 13.3-12.1 8z"
  />
</svg>
